<?xml version="1.0" encoding="utf-8" standalone="no"?>
<!DOCTYPE svg PUBLIC "-//W3C//DTD SVG 1.1//EN"
  "http://www.w3.org/Graphics/SVG/1.1/DTD/svg11.dtd">
<svg xmlns:xlink="http://www.w3.org/1999/xlink" width="864pt" height="360pt" viewBox="0 0 864 360" xmlns="http://www.w3.org/2000/svg" version="1.1">
 <metadata>
  <rdf:RDF xmlns:dc="http://purl.org/dc/elements/1.1/" xmlns:cc="http://creativecommons.org/ns#" xmlns:rdf="http://www.w3.org/1999/02/22-rdf-syntax-ns#">
   <cc:Work>
    <dc:type rdf:resource="http://purl.org/dc/dcmitype/StillImage"/>
    <dc:date>2023-06-12T09:05:05.772248</dc:date>
    <dc:format>image/svg+xml</dc:format>
    <dc:creator>
     <cc:Agent>
      <dc:title>Matplotlib v3.7.1, https://matplotlib.org/</dc:title>
     </cc:Agent>
    </dc:creator>
   </cc:Work>
  </rdf:RDF>
 </metadata>
 <defs>
  <style type="text/css">*{stroke-linejoin: round; stroke-linecap: butt}</style>
 </defs>
 <g id="figure_1">
  <g id="patch_1">
   <path d="M 0 360 
L 864 360 
L 864 0 
L 0 0 
L 0 360 
z
" style="fill: none; opacity: 0"/>
  </g>
  <g id="axes_1">
   <g id="patch_2">
    <path d="M 108 320.4 
L 777.6 320.4 
L 777.6 43.2 
L 108 43.2 
L 108 320.4 
z
" style="fill: none; opacity: 0"/>
   </g>
   <g id="matplotlib.axis_1">
    <g id="xtick_1">
     <g id="line2d_1">
      <path d="M 118.086469 320.4 
L 118.086469 43.2 
" clip-path="url(#pa7bbcf5cde)" style="fill: none; stroke-dasharray: 5.12,1.28,0.8,1.28; stroke-dashoffset: 0; stroke: #b0b0b0; stroke-width: 0.8"/>
     </g>
     <g id="line2d_2">
      <defs>
       <path id="m4a1f562256" d="M 0 0 
L 0 3.5 
" style="stroke: #a9a9a9; stroke-width: 0.8"/>
      </defs>
      <g>
       <use xlink:href="#m4a1f562256" x="118.086469" y="320.4" style="fill: #a9a9a9; stroke: #a9a9a9; stroke-width: 0.8"/>
      </g>
     </g>
     <g id="text_1">
      <!-- 2021-07 -->
      <g style="fill: #a9a9a9" transform="translate(97.195063 334.998438) scale(0.1 -0.1)">
       <defs>
        <path id="DejaVuSans-32" d="M 1228 531 
L 3431 531 
L 3431 0 
L 469 0 
L 469 531 
Q 828 903 1448 1529 
Q 2069 2156 2228 2338 
Q 2531 2678 2651 2914 
Q 2772 3150 2772 3378 
Q 2772 3750 2511 3984 
Q 2250 4219 1831 4219 
Q 1534 4219 1204 4116 
Q 875 4013 500 3803 
L 500 4441 
Q 881 4594 1212 4672 
Q 1544 4750 1819 4750 
Q 2544 4750 2975 4387 
Q 3406 4025 3406 3419 
Q 3406 3131 3298 2873 
Q 3191 2616 2906 2266 
Q 2828 2175 2409 1742 
Q 1991 1309 1228 531 
z
" transform="scale(0.015625)"/>
        <path id="DejaVuSans-30" d="M 2034 4250 
Q 1547 4250 1301 3770 
Q 1056 3291 1056 2328 
Q 1056 1369 1301 889 
Q 1547 409 2034 409 
Q 2525 409 2770 889 
Q 3016 1369 3016 2328 
Q 3016 3291 2770 3770 
Q 2525 4250 2034 4250 
z
M 2034 4750 
Q 2819 4750 3233 4129 
Q 3647 3509 3647 2328 
Q 3647 1150 3233 529 
Q 2819 -91 2034 -91 
Q 1250 -91 836 529 
Q 422 1150 422 2328 
Q 422 3509 836 4129 
Q 1250 4750 2034 4750 
z
" transform="scale(0.015625)"/>
        <path id="DejaVuSans-31" d="M 794 531 
L 1825 531 
L 1825 4091 
L 703 3866 
L 703 4441 
L 1819 4666 
L 2450 4666 
L 2450 531 
L 3481 531 
L 3481 0 
L 794 0 
L 794 531 
z
" transform="scale(0.015625)"/>
        <path id="DejaVuSans-2d" d="M 313 2009 
L 1997 2009 
L 1997 1497 
L 313 1497 
L 313 2009 
z
" transform="scale(0.015625)"/>
        <path id="DejaVuSans-37" d="M 525 4666 
L 3525 4666 
L 3525 4397 
L 1831 0 
L 1172 0 
L 2766 4134 
L 525 4134 
L 525 4666 
z
" transform="scale(0.015625)"/>
       </defs>
       <use xlink:href="#DejaVuSans-32"/>
       <use xlink:href="#DejaVuSans-30" x="63.623047"/>
       <use xlink:href="#DejaVuSans-32" x="127.246094"/>
       <use xlink:href="#DejaVuSans-31" x="190.869141"/>
       <use xlink:href="#DejaVuSans-2d" x="254.492188"/>
       <use xlink:href="#DejaVuSans-30" x="290.576172"/>
       <use xlink:href="#DejaVuSans-37" x="354.199219"/>
      </g>
     </g>
    </g>
    <g id="xtick_2">
     <g id="line2d_3">
      <path d="M 199.486047 320.4 
L 199.486047 43.2 
" clip-path="url(#pa7bbcf5cde)" style="fill: none; stroke-dasharray: 5.12,1.28,0.8,1.28; stroke-dashoffset: 0; stroke: #b0b0b0; stroke-width: 0.8"/>
     </g>
     <g id="line2d_4">
      <g>
       <use xlink:href="#m4a1f562256" x="199.486047" y="320.4" style="fill: #a9a9a9; stroke: #a9a9a9; stroke-width: 0.8"/>
      </g>
     </g>
     <g id="text_2">
      <!-- 2021-10 -->
      <g style="fill: #a9a9a9" transform="translate(178.59464 334.998438) scale(0.1 -0.1)">
       <use xlink:href="#DejaVuSans-32"/>
       <use xlink:href="#DejaVuSans-30" x="63.623047"/>
       <use xlink:href="#DejaVuSans-32" x="127.246094"/>
       <use xlink:href="#DejaVuSans-31" x="190.869141"/>
       <use xlink:href="#DejaVuSans-2d" x="254.492188"/>
       <use xlink:href="#DejaVuSans-31" x="290.576172"/>
       <use xlink:href="#DejaVuSans-30" x="354.199219"/>
      </g>
     </g>
    </g>
    <g id="xtick_3">
     <g id="line2d_5">
      <path d="M 280.885624 320.4 
L 280.885624 43.2 
" clip-path="url(#pa7bbcf5cde)" style="fill: none; stroke-dasharray: 5.12,1.28,0.8,1.28; stroke-dashoffset: 0; stroke: #b0b0b0; stroke-width: 0.8"/>
     </g>
     <g id="line2d_6">
      <g>
       <use xlink:href="#m4a1f562256" x="280.885624" y="320.4" style="fill: #a9a9a9; stroke: #a9a9a9; stroke-width: 0.8"/>
      </g>
     </g>
     <g id="text_3">
      <!-- 2022-01 -->
      <g style="fill: #a9a9a9" transform="translate(259.994217 334.998438) scale(0.1 -0.1)">
       <use xlink:href="#DejaVuSans-32"/>
       <use xlink:href="#DejaVuSans-30" x="63.623047"/>
       <use xlink:href="#DejaVuSans-32" x="127.246094"/>
       <use xlink:href="#DejaVuSans-32" x="190.869141"/>
       <use xlink:href="#DejaVuSans-2d" x="254.492188"/>
       <use xlink:href="#DejaVuSans-30" x="290.576172"/>
       <use xlink:href="#DejaVuSans-31" x="354.199219"/>
      </g>
     </g>
    </g>
    <g id="xtick_4">
     <g id="line2d_7">
      <path d="M 360.515645 320.4 
L 360.515645 43.2 
" clip-path="url(#pa7bbcf5cde)" style="fill: none; stroke-dasharray: 5.12,1.28,0.8,1.28; stroke-dashoffset: 0; stroke: #b0b0b0; stroke-width: 0.8"/>
     </g>
     <g id="line2d_8">
      <g>
       <use xlink:href="#m4a1f562256" x="360.515645" y="320.4" style="fill: #a9a9a9; stroke: #a9a9a9; stroke-width: 0.8"/>
      </g>
     </g>
     <g id="text_4">
      <!-- 2022-04 -->
      <g style="fill: #a9a9a9" transform="translate(339.624239 334.998438) scale(0.1 -0.1)">
       <defs>
        <path id="DejaVuSans-34" d="M 2419 4116 
L 825 1625 
L 2419 1625 
L 2419 4116 
z
M 2253 4666 
L 3047 4666 
L 3047 1625 
L 3713 1625 
L 3713 1100 
L 3047 1100 
L 3047 0 
L 2419 0 
L 2419 1100 
L 313 1100 
L 313 1709 
L 2253 4666 
z
" transform="scale(0.015625)"/>
       </defs>
       <use xlink:href="#DejaVuSans-32"/>
       <use xlink:href="#DejaVuSans-30" x="63.623047"/>
       <use xlink:href="#DejaVuSans-32" x="127.246094"/>
       <use xlink:href="#DejaVuSans-32" x="190.869141"/>
       <use xlink:href="#DejaVuSans-2d" x="254.492188"/>
       <use xlink:href="#DejaVuSans-30" x="290.576172"/>
       <use xlink:href="#DejaVuSans-34" x="354.199219"/>
      </g>
     </g>
    </g>
    <g id="xtick_5">
     <g id="line2d_9">
      <path d="M 441.030444 320.4 
L 441.030444 43.2 
" clip-path="url(#pa7bbcf5cde)" style="fill: none; stroke-dasharray: 5.12,1.28,0.8,1.28; stroke-dashoffset: 0; stroke: #b0b0b0; stroke-width: 0.8"/>
     </g>
     <g id="line2d_10">
      <g>
       <use xlink:href="#m4a1f562256" x="441.030444" y="320.4" style="fill: #a9a9a9; stroke: #a9a9a9; stroke-width: 0.8"/>
      </g>
     </g>
     <g id="text_5">
      <!-- 2022-07 -->
      <g style="fill: #a9a9a9" transform="translate(420.139038 334.998438) scale(0.1 -0.1)">
       <use xlink:href="#DejaVuSans-32"/>
       <use xlink:href="#DejaVuSans-30" x="63.623047"/>
       <use xlink:href="#DejaVuSans-32" x="127.246094"/>
       <use xlink:href="#DejaVuSans-32" x="190.869141"/>
       <use xlink:href="#DejaVuSans-2d" x="254.492188"/>
       <use xlink:href="#DejaVuSans-30" x="290.576172"/>
       <use xlink:href="#DejaVuSans-37" x="354.199219"/>
      </g>
     </g>
    </g>
    <g id="xtick_6">
     <g id="line2d_11">
      <path d="M 522.430021 320.4 
L 522.430021 43.2 
" clip-path="url(#pa7bbcf5cde)" style="fill: none; stroke-dasharray: 5.12,1.28,0.8,1.28; stroke-dashoffset: 0; stroke: #b0b0b0; stroke-width: 0.8"/>
     </g>
     <g id="line2d_12">
      <g>
       <use xlink:href="#m4a1f562256" x="522.430021" y="320.4" style="fill: #a9a9a9; stroke: #a9a9a9; stroke-width: 0.8"/>
      </g>
     </g>
     <g id="text_6">
      <!-- 2022-10 -->
      <g style="fill: #a9a9a9" transform="translate(501.538615 334.998438) scale(0.1 -0.1)">
       <use xlink:href="#DejaVuSans-32"/>
       <use xlink:href="#DejaVuSans-30" x="63.623047"/>
       <use xlink:href="#DejaVuSans-32" x="127.246094"/>
       <use xlink:href="#DejaVuSans-32" x="190.869141"/>
       <use xlink:href="#DejaVuSans-2d" x="254.492188"/>
       <use xlink:href="#DejaVuSans-31" x="290.576172"/>
       <use xlink:href="#DejaVuSans-30" x="354.199219"/>
      </g>
     </g>
    </g>
    <g id="xtick_7">
     <g id="line2d_13">
      <path d="M 603.829598 320.4 
L 603.829598 43.2 
" clip-path="url(#pa7bbcf5cde)" style="fill: none; stroke-dasharray: 5.12,1.28,0.8,1.28; stroke-dashoffset: 0; stroke: #b0b0b0; stroke-width: 0.8"/>
     </g>
     <g id="line2d_14">
      <g>
       <use xlink:href="#m4a1f562256" x="603.829598" y="320.4" style="fill: #a9a9a9; stroke: #a9a9a9; stroke-width: 0.8"/>
      </g>
     </g>
     <g id="text_7">
      <!-- 2023-01 -->
      <g style="fill: #a9a9a9" transform="translate(582.938192 334.998438) scale(0.1 -0.1)">
       <defs>
        <path id="DejaVuSans-33" d="M 2597 2516 
Q 3050 2419 3304 2112 
Q 3559 1806 3559 1356 
Q 3559 666 3084 287 
Q 2609 -91 1734 -91 
Q 1441 -91 1130 -33 
Q 819 25 488 141 
L 488 750 
Q 750 597 1062 519 
Q 1375 441 1716 441 
Q 2309 441 2620 675 
Q 2931 909 2931 1356 
Q 2931 1769 2642 2001 
Q 2353 2234 1838 2234 
L 1294 2234 
L 1294 2753 
L 1863 2753 
Q 2328 2753 2575 2939 
Q 2822 3125 2822 3475 
Q 2822 3834 2567 4026 
Q 2313 4219 1838 4219 
Q 1578 4219 1281 4162 
Q 984 4106 628 3988 
L 628 4550 
Q 988 4650 1302 4700 
Q 1616 4750 1894 4750 
Q 2613 4750 3031 4423 
Q 3450 4097 3450 3541 
Q 3450 3153 3228 2886 
Q 3006 2619 2597 2516 
z
" transform="scale(0.015625)"/>
       </defs>
       <use xlink:href="#DejaVuSans-32"/>
       <use xlink:href="#DejaVuSans-30" x="63.623047"/>
       <use xlink:href="#DejaVuSans-32" x="127.246094"/>
       <use xlink:href="#DejaVuSans-33" x="190.869141"/>
       <use xlink:href="#DejaVuSans-2d" x="254.492188"/>
       <use xlink:href="#DejaVuSans-30" x="290.576172"/>
       <use xlink:href="#DejaVuSans-31" x="354.199219"/>
      </g>
     </g>
    </g>
    <g id="xtick_8">
     <g id="line2d_15">
      <path d="M 683.459619 320.4 
L 683.459619 43.2 
" clip-path="url(#pa7bbcf5cde)" style="fill: none; stroke-dasharray: 5.12,1.28,0.8,1.28; stroke-dashoffset: 0; stroke: #b0b0b0; stroke-width: 0.8"/>
     </g>
     <g id="line2d_16">
      <g>
       <use xlink:href="#m4a1f562256" x="683.459619" y="320.4" style="fill: #a9a9a9; stroke: #a9a9a9; stroke-width: 0.8"/>
      </g>
     </g>
     <g id="text_8">
      <!-- 2023-04 -->
      <g style="fill: #a9a9a9" transform="translate(662.568213 334.998438) scale(0.1 -0.1)">
       <use xlink:href="#DejaVuSans-32"/>
       <use xlink:href="#DejaVuSans-30" x="63.623047"/>
       <use xlink:href="#DejaVuSans-32" x="127.246094"/>
       <use xlink:href="#DejaVuSans-33" x="190.869141"/>
       <use xlink:href="#DejaVuSans-2d" x="254.492188"/>
       <use xlink:href="#DejaVuSans-30" x="290.576172"/>
       <use xlink:href="#DejaVuSans-34" x="354.199219"/>
      </g>
     </g>
    </g>
    <g id="xtick_9">
     <g id="line2d_17">
      <path d="M 763.974419 320.4 
L 763.974419 43.2 
" clip-path="url(#pa7bbcf5cde)" style="fill: none; stroke-dasharray: 5.12,1.28,0.8,1.28; stroke-dashoffset: 0; stroke: #b0b0b0; stroke-width: 0.8"/>
     </g>
     <g id="line2d_18">
      <g>
       <use xlink:href="#m4a1f562256" x="763.974419" y="320.4" style="fill: #a9a9a9; stroke: #a9a9a9; stroke-width: 0.8"/>
      </g>
     </g>
     <g id="text_9">
      <!-- 2023-07 -->
      <g style="fill: #a9a9a9" transform="translate(743.083012 334.998438) scale(0.1 -0.1)">
       <use xlink:href="#DejaVuSans-32"/>
       <use xlink:href="#DejaVuSans-30" x="63.623047"/>
       <use xlink:href="#DejaVuSans-32" x="127.246094"/>
       <use xlink:href="#DejaVuSans-33" x="190.869141"/>
       <use xlink:href="#DejaVuSans-2d" x="254.492188"/>
       <use xlink:href="#DejaVuSans-30" x="290.576172"/>
       <use xlink:href="#DejaVuSans-37" x="354.199219"/>
      </g>
     </g>
    </g>
   </g>
   <g id="matplotlib.axis_2">
    <g id="ytick_1">
     <g id="line2d_19">
      <path d="M 108 307.856821 
L 777.6 307.856821 
" clip-path="url(#pa7bbcf5cde)" style="fill: none; stroke-dasharray: 5.12,1.28,0.8,1.28; stroke-dashoffset: 0; stroke: #b0b0b0; stroke-width: 0.8"/>
     </g>
     <g id="line2d_20">
      <defs>
       <path id="m8da3315543" d="M 0 0 
L -3.5 0 
" style="stroke: #a9a9a9; stroke-width: 0.8"/>
      </defs>
      <g>
       <use xlink:href="#m8da3315543" x="108" y="307.856821" style="fill: #a9a9a9; stroke: #a9a9a9; stroke-width: 0.8"/>
      </g>
     </g>
     <g id="text_10">
      <!-- 0 -->
      <g style="fill: #a9a9a9" transform="translate(94.6375 311.656039) scale(0.1 -0.1)">
       <use xlink:href="#DejaVuSans-30"/>
      </g>
     </g>
    </g>
    <g id="ytick_2">
     <g id="line2d_21">
      <path d="M 108 279.446449 
L 777.6 279.446449 
" clip-path="url(#pa7bbcf5cde)" style="fill: none; stroke-dasharray: 5.12,1.28,0.8,1.28; stroke-dashoffset: 0; stroke: #b0b0b0; stroke-width: 0.8"/>
     </g>
     <g id="line2d_22">
      <g>
       <use xlink:href="#m8da3315543" x="108" y="279.446449" style="fill: #a9a9a9; stroke: #a9a9a9; stroke-width: 0.8"/>
      </g>
     </g>
     <g id="text_11">
      <!-- 500 -->
      <g style="fill: #a9a9a9" transform="translate(81.9125 283.245667) scale(0.1 -0.1)">
       <defs>
        <path id="DejaVuSans-35" d="M 691 4666 
L 3169 4666 
L 3169 4134 
L 1269 4134 
L 1269 2991 
Q 1406 3038 1543 3061 
Q 1681 3084 1819 3084 
Q 2600 3084 3056 2656 
Q 3513 2228 3513 1497 
Q 3513 744 3044 326 
Q 2575 -91 1722 -91 
Q 1428 -91 1123 -41 
Q 819 9 494 109 
L 494 744 
Q 775 591 1075 516 
Q 1375 441 1709 441 
Q 2250 441 2565 725 
Q 2881 1009 2881 1497 
Q 2881 1984 2565 2268 
Q 2250 2553 1709 2553 
Q 1456 2553 1204 2497 
Q 953 2441 691 2322 
L 691 4666 
z
" transform="scale(0.015625)"/>
       </defs>
       <use xlink:href="#DejaVuSans-35"/>
       <use xlink:href="#DejaVuSans-30" x="63.623047"/>
       <use xlink:href="#DejaVuSans-30" x="127.246094"/>
      </g>
     </g>
    </g>
    <g id="ytick_3">
     <g id="line2d_23">
      <path d="M 108 251.036077 
L 777.6 251.036077 
" clip-path="url(#pa7bbcf5cde)" style="fill: none; stroke-dasharray: 5.12,1.28,0.8,1.28; stroke-dashoffset: 0; stroke: #b0b0b0; stroke-width: 0.8"/>
     </g>
     <g id="line2d_24">
      <g>
       <use xlink:href="#m8da3315543" x="108" y="251.036077" style="fill: #a9a9a9; stroke: #a9a9a9; stroke-width: 0.8"/>
      </g>
     </g>
     <g id="text_12">
      <!-- 1000 -->
      <g style="fill: #a9a9a9" transform="translate(75.55 254.835295) scale(0.1 -0.1)">
       <use xlink:href="#DejaVuSans-31"/>
       <use xlink:href="#DejaVuSans-30" x="63.623047"/>
       <use xlink:href="#DejaVuSans-30" x="127.246094"/>
       <use xlink:href="#DejaVuSans-30" x="190.869141"/>
      </g>
     </g>
    </g>
    <g id="ytick_4">
     <g id="line2d_25">
      <path d="M 108 222.625705 
L 777.6 222.625705 
" clip-path="url(#pa7bbcf5cde)" style="fill: none; stroke-dasharray: 5.12,1.28,0.8,1.28; stroke-dashoffset: 0; stroke: #b0b0b0; stroke-width: 0.8"/>
     </g>
     <g id="line2d_26">
      <g>
       <use xlink:href="#m8da3315543" x="108" y="222.625705" style="fill: #a9a9a9; stroke: #a9a9a9; stroke-width: 0.8"/>
      </g>
     </g>
     <g id="text_13">
      <!-- 1500 -->
      <g style="fill: #a9a9a9" transform="translate(75.55 226.424923) scale(0.1 -0.1)">
       <use xlink:href="#DejaVuSans-31"/>
       <use xlink:href="#DejaVuSans-35" x="63.623047"/>
       <use xlink:href="#DejaVuSans-30" x="127.246094"/>
       <use xlink:href="#DejaVuSans-30" x="190.869141"/>
      </g>
     </g>
    </g>
    <g id="ytick_5">
     <g id="line2d_27">
      <path d="M 108 194.215333 
L 777.6 194.215333 
" clip-path="url(#pa7bbcf5cde)" style="fill: none; stroke-dasharray: 5.12,1.28,0.8,1.28; stroke-dashoffset: 0; stroke: #b0b0b0; stroke-width: 0.8"/>
     </g>
     <g id="line2d_28">
      <g>
       <use xlink:href="#m8da3315543" x="108" y="194.215333" style="fill: #a9a9a9; stroke: #a9a9a9; stroke-width: 0.8"/>
      </g>
     </g>
     <g id="text_14">
      <!-- 2000 -->
      <g style="fill: #a9a9a9" transform="translate(75.55 198.014551) scale(0.1 -0.1)">
       <use xlink:href="#DejaVuSans-32"/>
       <use xlink:href="#DejaVuSans-30" x="63.623047"/>
       <use xlink:href="#DejaVuSans-30" x="127.246094"/>
       <use xlink:href="#DejaVuSans-30" x="190.869141"/>
      </g>
     </g>
    </g>
    <g id="ytick_6">
     <g id="line2d_29">
      <path d="M 108 165.804961 
L 777.6 165.804961 
" clip-path="url(#pa7bbcf5cde)" style="fill: none; stroke-dasharray: 5.12,1.28,0.8,1.28; stroke-dashoffset: 0; stroke: #b0b0b0; stroke-width: 0.8"/>
     </g>
     <g id="line2d_30">
      <g>
       <use xlink:href="#m8da3315543" x="108" y="165.804961" style="fill: #a9a9a9; stroke: #a9a9a9; stroke-width: 0.8"/>
      </g>
     </g>
     <g id="text_15">
      <!-- 2500 -->
      <g style="fill: #a9a9a9" transform="translate(75.55 169.604179) scale(0.1 -0.1)">
       <use xlink:href="#DejaVuSans-32"/>
       <use xlink:href="#DejaVuSans-35" x="63.623047"/>
       <use xlink:href="#DejaVuSans-30" x="127.246094"/>
       <use xlink:href="#DejaVuSans-30" x="190.869141"/>
      </g>
     </g>
    </g>
    <g id="ytick_7">
     <g id="line2d_31">
      <path d="M 108 137.394589 
L 777.6 137.394589 
" clip-path="url(#pa7bbcf5cde)" style="fill: none; stroke-dasharray: 5.12,1.28,0.8,1.28; stroke-dashoffset: 0; stroke: #b0b0b0; stroke-width: 0.8"/>
     </g>
     <g id="line2d_32">
      <g>
       <use xlink:href="#m8da3315543" x="108" y="137.394589" style="fill: #a9a9a9; stroke: #a9a9a9; stroke-width: 0.8"/>
      </g>
     </g>
     <g id="text_16">
      <!-- 3000 -->
      <g style="fill: #a9a9a9" transform="translate(75.55 141.193807) scale(0.1 -0.1)">
       <use xlink:href="#DejaVuSans-33"/>
       <use xlink:href="#DejaVuSans-30" x="63.623047"/>
       <use xlink:href="#DejaVuSans-30" x="127.246094"/>
       <use xlink:href="#DejaVuSans-30" x="190.869141"/>
      </g>
     </g>
    </g>
    <g id="ytick_8">
     <g id="line2d_33">
      <path d="M 108 108.984216 
L 777.6 108.984216 
" clip-path="url(#pa7bbcf5cde)" style="fill: none; stroke-dasharray: 5.12,1.28,0.8,1.28; stroke-dashoffset: 0; stroke: #b0b0b0; stroke-width: 0.8"/>
     </g>
     <g id="line2d_34">
      <g>
       <use xlink:href="#m8da3315543" x="108" y="108.984216" style="fill: #a9a9a9; stroke: #a9a9a9; stroke-width: 0.8"/>
      </g>
     </g>
     <g id="text_17">
      <!-- 3500 -->
      <g style="fill: #a9a9a9" transform="translate(75.55 112.783435) scale(0.1 -0.1)">
       <use xlink:href="#DejaVuSans-33"/>
       <use xlink:href="#DejaVuSans-35" x="63.623047"/>
       <use xlink:href="#DejaVuSans-30" x="127.246094"/>
       <use xlink:href="#DejaVuSans-30" x="190.869141"/>
      </g>
     </g>
    </g>
    <g id="ytick_9">
     <g id="line2d_35">
      <path d="M 108 80.573844 
L 777.6 80.573844 
" clip-path="url(#pa7bbcf5cde)" style="fill: none; stroke-dasharray: 5.12,1.28,0.8,1.28; stroke-dashoffset: 0; stroke: #b0b0b0; stroke-width: 0.8"/>
     </g>
     <g id="line2d_36">
      <g>
       <use xlink:href="#m8da3315543" x="108" y="80.573844" style="fill: #a9a9a9; stroke: #a9a9a9; stroke-width: 0.8"/>
      </g>
     </g>
     <g id="text_18">
      <!-- 4000 -->
      <g style="fill: #a9a9a9" transform="translate(75.55 84.373063) scale(0.1 -0.1)">
       <use xlink:href="#DejaVuSans-34"/>
       <use xlink:href="#DejaVuSans-30" x="63.623047"/>
       <use xlink:href="#DejaVuSans-30" x="127.246094"/>
       <use xlink:href="#DejaVuSans-30" x="190.869141"/>
      </g>
     </g>
    </g>
    <g id="ytick_10">
     <g id="line2d_37">
      <path d="M 108 52.163472 
L 777.6 52.163472 
" clip-path="url(#pa7bbcf5cde)" style="fill: none; stroke-dasharray: 5.12,1.28,0.8,1.28; stroke-dashoffset: 0; stroke: #b0b0b0; stroke-width: 0.8"/>
     </g>
     <g id="line2d_38">
      <g>
       <use xlink:href="#m8da3315543" x="108" y="52.163472" style="fill: #a9a9a9; stroke: #a9a9a9; stroke-width: 0.8"/>
      </g>
     </g>
     <g id="text_19">
      <!-- 4500 -->
      <g style="fill: #a9a9a9" transform="translate(75.55 55.962691) scale(0.1 -0.1)">
       <use xlink:href="#DejaVuSans-34"/>
       <use xlink:href="#DejaVuSans-35" x="63.623047"/>
       <use xlink:href="#DejaVuSans-30" x="127.246094"/>
       <use xlink:href="#DejaVuSans-30" x="190.869141"/>
      </g>
     </g>
    </g>
   </g>
   <g id="line2d_39">
    <path d="M 138.436364 307.686359 
L 141.975476 307.402255 
L 142.860254 307.288613 
L 143.745032 307.288613 
L 144.62981 306.947689 
L 146.399366 306.834047 
L 152.592812 305.640812 
L 154.362368 305.52717 
L 155.247146 305.356708 
L 157.90148 305.186246 
L 158.786258 304.73168 
L 159.671036 304.504397 
L 160.555814 303.481623 
L 161.440592 302.913416 
L 162.32537 301.038331 
L 163.210148 300.92469 
L 164.094926 300.299662 
L 165.864482 299.504171 
L 167.634038 298.254115 
L 168.518816 297.458625 
L 170.288372 296.663134 
L 171.17315 296.32221 
L 172.057928 295.697182 
L 175.59704 294.276663 
L 176.481818 292.912965 
L 177.366596 292.231116 
L 179.136152 291.321984 
L 184.44482 290.583315 
L 185.329598 290.412852 
L 187.099154 290.299211 
L 187.983932 290.128749 
L 188.86871 289.731003 
L 190.638266 289.674183 
L 191.523044 289.674183 
L 195.062156 289.276437 
L 196.831712 288.821871 
L 198.601268 288.424126 
L 205.679493 287.514994 
L 206.564271 287.060428 
L 207.449049 286.946787 
L 208.333827 286.605862 
L 210.103383 286.321759 
L 210.988161 286.264938 
L 211.872939 285.980834 
L 215.412051 285.469448 
L 217.181607 285.014882 
L 218.066385 284.90124 
L 218.951163 284.90124 
L 223.375053 284.333033 
L 226.029387 283.594363 
L 227.798943 283.423901 
L 228.683721 283.36708 
L 231.338055 282.855693 
L 232.222833 282.57159 
L 233.107611 281.435175 
L 235.761945 280.526043 
L 238.416279 279.844194 
L 239.301057 279.446449 
L 240.185835 279.389628 
L 244.609725 278.253213 
L 245.494503 278.253213 
L 247.264059 278.02593 
L 249.918393 277.28726 
L 251.687949 276.946336 
L 252.572727 276.889515 
L 254.342283 276.150846 
L 255.227061 276.037204 
L 256.111839 275.639459 
L 257.881395 275.468997 
L 258.766173 275.412176 
L 261.420507 274.95761 
L 263.190063 274.673506 
L 267.613953 273.821195 
L 271.153066 272.457497 
L 272.037844 272.343856 
L 273.8074 271.775648 
L 275.576956 270.809696 
L 276.461734 270.241488 
L 277.346512 270.127847 
L 278.23129 269.843743 
L 279.116068 269.730101 
L 284.424736 268.252762 
L 286.194292 267.684555 
L 287.07907 267.570913 
L 288.848626 267.116347 
L 290.618182 266.718602 
L 291.50296 266.604961 
L 293.272516 265.866291 
L 294.157294 265.695829 
L 295.042072 265.354904 
L 295.92685 265.241263 
L 296.811628 264.843517 
L 297.696406 264.616234 
L 299.465962 264.502593 
L 301.235518 263.934386 
L 302.120296 263.820744 
L 303.005074 263.820744 
L 303.889852 263.422999 
L 306.544186 262.854791 
L 308.313742 262.797971 
L 309.19852 262.684329 
L 310.083298 262.684329 
L 311.852854 262.400225 
L 313.62241 261.604735 
L 323.354968 257.797745 
L 324.239746 257.343179 
L 325.124524 256.434047 
L 326.009302 255.070349 
L 326.89408 253.990755 
L 327.778858 253.763472 
L 328.663636 253.763472 
L 330.433192 252.513416 
L 331.31797 252.286133 
L 332.202748 251.831567 
L 333.087526 251.661105 
L 333.972304 250.922435 
L 334.857082 250.695152 
L 337.511416 249.501917 
L 338.396195 248.479143 
L 339.280973 247.172266 
L 340.165751 246.660879 
L 341.050529 245.297182 
L 341.935307 244.44487 
L 342.820085 244.047125 
L 343.704863 243.819842 
L 345.474419 242.797069 
L 346.359197 242.399324 
L 349.898309 239.899211 
L 350.783087 238.705975 
L 351.667865 236.77407 
L 352.552643 235.524014 
L 353.437421 234.898985 
L 354.322199 234.558061 
L 357.861311 231.660203 
L 359.630867 230.410147 
L 360.515645 229.671477 
L 361.400423 228.478241 
L 362.285201 227.682751 
L 364.939535 225.921308 
L 366.709091 224.784893 
L 367.593869 224.046223 
L 368.478647 223.81894 
L 371.132981 222.512063 
L 372.902537 221.54611 
L 373.787315 221.205186 
L 375.556871 219.671026 
L 376.441649 218.648253 
L 378.211205 217.511838 
L 379.095983 217.284555 
L 379.980761 216.829989 
L 380.865539 216.204961 
L 382.635095 215.295829 
L 383.519873 215.182187 
L 385.289429 214.273055 
L 386.174207 213.818489 
L 387.058985 212.966178 
L 387.943763 212.397971 
L 388.828541 212.113867 
L 389.713319 211.54566 
L 393.252431 209.841037 
L 394.137209 209.102368 
L 397.676321 207.965953 
L 398.561099 207.397745 
L 399.445877 207.227283 
L 401.215433 206.659076 
L 403.869767 205.693123 
L 406.524101 204.783991 
L 408.293658 204.499887 
L 410.063214 203.079369 
L 411.83277 202.283878 
L 414.487104 200.86336 
L 416.25666 200.408794 
L 417.141438 199.897407 
L 418.026216 199.670124 
L 420.68055 198.079143 
L 423.334884 197.510936 
L 425.989218 196.601804 
L 427.758774 195.635851 
L 428.643552 195.52221 
L 429.52833 195.181285 
L 430.413108 195.067644 
L 431.297886 194.840361 
L 433.95222 193.022097 
L 434.836998 192.851635 
L 435.721776 192.567531 
L 436.606554 192.45389 
L 437.491332 192.169786 
L 438.37611 191.544758 
L 443.684778 189.896956 
L 444.569556 189.840135 
L 450.763002 187.737768 
L 451.64778 187.340023 
L 454.302114 186.771815 
L 456.07167 186.37407 
L 456.956448 185.976325 
L 457.841226 185.805862 
L 460.49556 184.669448 
L 463.149894 183.36257 
L 464.034672 182.794363 
L 464.91945 182.56708 
L 467.573784 181.260203 
L 469.34334 180.862458 
L 471.112896 180.010147 
L 472.882452 179.555581 
L 473.76723 179.441939 
L 474.652008 178.873732 
L 475.536786 178.475986 
L 476.421564 178.305524 
L 478.191121 177.623675 
L 479.075899 177.453213 
L 479.960677 176.998647 
L 483.499789 176.48726 
L 485.269345 175.69177 
L 486.154123 175.009921 
L 487.038901 173.532582 
L 488.808457 173.191657 
L 489.693235 173.021195 
L 493.232347 171.316573 
L 494.117125 171.14611 
L 499.425793 168.702818 
L 500.310571 168.134611 
L 501.195349 167.793687 
L 503.849683 167.2823 
L 505.619239 166.429989 
L 506.504017 166.089064 
L 507.388795 165.975423 
L 510.927907 164.498083 
L 512.697463 163.361669 
L 513.582241 162.963923 
L 514.467019 162.850282 
L 515.351797 162.566178 
L 516.236575 162.509357 
L 519.775687 161.429763 
L 520.660465 161.372943 
L 521.545243 160.747914 
L 523.314799 160.179707 
L 525.969133 159.384216 
L 526.853911 158.87283 
L 527.738689 158.645547 
L 528.623467 158.077339 
L 529.508245 157.736415 
L 530.393023 157.225028 
L 532.162579 156.6 
L 533.047357 156.372717 
L 536.586469 154.668095 
L 537.471247 153.758963 
L 538.356025 153.190755 
L 539.240803 153.020293 
L 541.010359 151.770237 
L 541.895137 151.599775 
L 542.779915 150.349718 
L 543.664693 150.008794 
L 544.549471 149.383766 
L 545.434249 149.270124 
L 546.319027 148.701917 
L 547.203805 148.304171 
L 548.088584 148.133709 
L 548.973362 147.792785 
L 549.85814 147.110936 
L 550.742918 146.826832 
L 553.397252 145.17903 
L 556.936364 143.531229 
L 557.821142 143.417587 
L 559.590698 142.678918 
L 560.475476 142.167531 
L 561.360254 140.803833 
L 562.245032 139.951522 
L 563.12981 139.496956 
L 564.014588 139.326494 
L 565.784144 138.30372 
L 566.668922 138.133258 
L 568.438478 137.337768 
L 571.092812 136.258174 
L 572.862368 135.121759 
L 574.631924 133.303495 
L 576.40148 132.280722 
L 577.286258 131.769335 
L 578.171036 130.917024 
L 580.82537 128.871477 
L 581.710148 128.416911 
L 582.594926 127.507779 
L 583.479704 126.882751 
L 585.24926 126.314543 
L 586.134038 125.519053 
L 587.903594 124.666742 
L 588.788372 124.439459 
L 589.67315 123.814431 
L 590.557928 123.587148 
L 593.212262 122.280271 
L 594.09704 121.655242 
L 594.981818 121.200676 
L 596.751374 120.68929 
L 597.636152 120.177903 
L 603.829598 118.075536 
L 604.714376 117.336866 
L 608.253488 116.086809 
L 609.138266 115.859526 
L 610.023044 115.234498 
L 612.677378 114.098083 
L 613.562156 113.473055 
L 614.446934 113.018489 
L 616.21649 109.722886 
L 617.986047 107.73416 
L 618.870825 107.109132 
L 621.525159 106.029538 
L 622.409937 105.745434 
L 623.294715 105.631793 
L 624.179493 105.177227 
L 626.833827 104.381736 
L 629.488161 103.358963 
L 631.257717 102.108906 
L 633.912051 100.972492 
L 638.335941 98.58602 
L 639.220719 97.733709 
L 640.990275 96.824577 
L 641.875053 96.370011 
L 642.759831 96.085908 
L 643.644609 95.460879 
L 645.414165 94.665389 
L 647.183721 93.642616 
L 648.068499 93.131229 
L 648.953277 92.903946 
L 649.838055 92.278918 
L 650.722833 91.937993 
L 651.607611 91.767531 
L 653.377167 91.085682 
L 656.031501 90.119729 
L 656.916279 89.494701 
L 657.801057 89.324239 
L 660.455391 88.415107 
L 661.340169 87.733258 
L 664.879281 86.540023 
L 666.648837 85.403608 
L 668.418393 84.664938 
L 670.187949 83.414882 
L 671.957505 82.846674 
L 672.842283 82.108005 
L 673.727061 81.937542 
L 674.611839 81.198873 
L 676.381395 80.23292 
L 678.150951 79.49425 
L 679.035729 78.641939 
L 680.805285 78.073732 
L 681.690063 77.789628 
L 682.574841 77.278241 
L 683.459619 77.1646 
L 686.113953 75.857723 
L 689.653066 74.834949 
L 690.537844 74.778129 
L 691.422622 74.607666 
L 692.3074 74.266742 
L 693.192178 74.09628 
L 694.961734 73.414431 
L 695.846512 73.35761 
L 698.500846 72.505299 
L 700.270402 71.482525 
L 702.039958 70.28929 
L 707.348626 67.845998 
L 710.00296 66.198196 
L 711.772516 65.800451 
L 712.657294 65.289064 
L 713.542072 64.607215 
L 724.159408 61.197971 
L 725.044186 61.084329 
L 727.69852 60.40248 
L 728.583298 60.004735 
L 729.468076 59.891094 
L 731.237632 59.209245 
L 732.12241 59.095603 
L 733.007188 58.697858 
L 734.776744 58.300113 
L 735.661522 57.902368 
L 738.315856 57.33416 
L 739.200634 57.220519 
L 740.97019 56.822773 
L 743.624524 56.425028 
L 744.509302 56.084104 
L 747.163636 55.8 
L 747.163636 55.8 
" clip-path="url(#pa7bbcf5cde)" style="fill: none; stroke: #1f77b4; stroke-width: 1.5; stroke-linecap: square"/>
   </g>
   <g id="line2d_40">
    <path d="M 139.321142 307.8 
L 141.090698 307.8 
L 142.860254 307.572717 
L 148.168922 307.515896 
L 150.823256 307.402255 
L 153.47759 307.345434 
L 155.247146 307.288613 
L 157.90148 307.288613 
L 158.786258 307.06133 
L 161.440592 307.00451 
L 165.864482 306.493123 
L 172.942706 306.095378 
L 173.827484 306.095378 
L 174.712262 305.924915 
L 177.366596 305.868095 
L 179.136152 305.640812 
L 182.675264 305.640812 
L 183.560042 305.52717 
L 187.983932 305.470349 
L 190.638266 305.356708 
L 198.601268 305.299887 
L 200.370825 305.243067 
L 203.909937 305.186246 
L 206.564271 305.072604 
L 210.103383 305.072604 
L 210.988161 304.958963 
L 214.527273 304.902142 
L 217.181607 304.788501 
L 223.375053 304.73168 
L 225.144609 304.674859 
L 228.683721 304.618038 
L 229.568499 304.504397 
L 230.453277 304.504397 
L 231.338055 304.333935 
L 236.646723 304.277114 
L 237.531501 304.163472 
L 241.070613 304.106652 
L 242.840169 304.049831 
L 245.494503 303.99301 
L 247.264059 303.936189 
L 249.033615 303.879369 
L 250.803171 303.708906 
L 254.342283 303.538444 
L 256.996617 303.481623 
L 258.766173 303.424803 
L 260.535729 303.424803 
L 261.420507 303.311161 
L 264.074841 303.311161 
L 265.844397 303.140699 
L 268.498732 303.027057 
L 272.922622 302.970237 
L 275.576956 302.686133 
L 277.346512 302.572492 
L 278.23129 302.402029 
L 281.770402 302.345209 
L 291.50296 301.777001 
L 293.272516 301.72018 
L 295.92685 301.606539 
L 296.811628 301.606539 
L 298.581184 301.436077 
L 300.35074 301.379256 
L 301.235518 301.379256 
L 302.120296 301.265614 
L 303.889852 301.208794 
L 308.313742 300.981511 
L 310.083298 300.92469 
L 312.737632 300.811048 
L 315.391966 300.754228 
L 317.161522 300.697407 
L 321.585412 300.697407 
L 325.124524 300.299662 
L 326.009302 300.299662 
L 327.778858 300.1292 
L 329.548414 300.072379 
L 333.972304 299.788275 
L 334.857082 299.560992 
L 336.626638 299.447351 
L 337.511416 299.220068 
L 340.165751 298.992785 
L 341.935307 298.595039 
L 343.704863 298.538219 
L 345.474419 298.538219 
L 346.359197 298.424577 
L 347.243975 298.424577 
L 349.898309 298.026832 
L 350.783087 297.799549 
L 356.976533 297.458625 
L 358.746089 297.401804 
L 368.478647 296.776776 
L 369.363425 296.606313 
L 372.017759 296.435851 
L 373.787315 296.151747 
L 375.556871 295.981285 
L 377.326427 295.924464 
L 379.095983 295.924464 
L 379.980761 295.754002 
L 382.635095 295.640361 
L 384.404651 295.640361 
L 386.174207 295.469899 
L 387.943763 295.413078 
L 389.713319 295.128974 
L 390.598097 294.901691 
L 392.367653 294.84487 
L 394.137209 294.78805 
L 395.021987 294.674408 
L 399.445877 294.617587 
L 411.83277 293.878918 
L 413.602326 293.878918 
L 415.371882 293.708455 
L 417.141438 293.708455 
L 419.795772 293.424352 
L 423.334884 293.25389 
L 425.10444 293.197069 
L 426.873996 293.140248 
L 429.52833 293.083427 
L 435.721776 292.742503 
L 440.145666 292.685682 
L 441.915222 292.628861 
L 442.8 292.628861 
L 443.684778 292.458399 
L 445.454334 292.401578 
L 450.763002 292.344758 
L 452.532558 292.287937 
L 456.956448 292.231116 
L 457.841226 292.060654 
L 465.804228 292.003833 
L 468.458562 291.890192 
L 470.228118 291.833371 
L 476.421564 291.492446 
L 481.730233 291.435626 
L 484.384567 291.208343 
L 486.154123 291.03788 
L 487.923679 290.98106 
L 489.693235 290.98106 
L 490.578013 290.867418 
L 493.232347 290.810598 
L 494.117125 290.583315 
L 497.656237 290.412852 
L 505.619239 290.356032 
L 510.043129 290.015107 
L 512.697463 289.731003 
L 517.121353 289.674183 
L 519.775687 289.390079 
L 525.084355 289.105975 
L 526.853911 289.049154 
L 530.393023 288.878692 
L 533.932135 288.821871 
L 536.586469 288.70823 
L 540.125581 288.651409 
L 542.779915 288.367306 
L 544.549471 288.310485 
L 548.088584 288.253664 
L 550.742918 288.026381 
L 551.627696 287.91274 
L 552.512474 287.91274 
L 554.28203 287.742277 
L 558.70592 287.685457 
L 560.475476 287.401353 
L 568.438478 287.344532 
L 570.208034 287.17407 
L 571.092812 287.060428 
L 572.862368 287.003608 
L 574.631924 286.946787 
L 575.516702 286.719504 
L 577.286258 286.662683 
L 578.171036 286.492221 
L 579.940592 286.492221 
L 581.710148 286.321759 
L 587.018816 286.037655 
L 587.903594 286.037655 
L 588.788372 285.924014 
L 590.557928 285.867193 
L 593.212262 285.583089 
L 595.866596 285.469448 
L 597.636152 285.412627 
L 602.060042 285.185344 
L 613.562156 285.128523 
L 616.21649 285.014882 
L 617.101268 285.014882 
L 617.986047 284.844419 
L 619.755603 284.787599 
L 624.179493 284.730778 
L 626.833827 284.617136 
L 631.257717 284.560316 
L 633.912051 284.446674 
L 635.681607 284.446674 
L 637.451163 284.219391 
L 639.220719 284.16257 
L 645.414165 283.821646 
L 647.183721 283.821646 
L 648.953277 283.651184 
L 655.146723 283.594363 
L 656.916279 283.423901 
L 659.570613 283.310259 
L 663.994503 283.253439 
L 665.764059 283.196618 
L 669.303171 283.139797 
L 671.072727 283.082976 
L 672.842283 283.026156 
L 674.611839 282.969335 
L 679.920507 282.912514 
L 684.344397 282.685231 
L 689.653066 282.62841 
L 694.076956 282.401127 
L 698.500846 282.401127 
L 699.385624 282.230665 
L 700.270402 282.230665 
L 702.039958 282.060203 
L 706.463848 282.003382 
L 708.233404 281.946561 
L 715.311628 281.889741 
L 717.081184 281.83292 
L 728.583298 281.776099 
L 730.352854 281.719278 
L 734.776744 281.719278 
L 735.661522 281.605637 
L 739.200634 281.548816 
L 740.97019 281.491995 
L 747.163636 281.491995 
L 747.163636 281.491995 
" clip-path="url(#pa7bbcf5cde)" style="fill: none; stroke: #ff7f0e; stroke-width: 1.5; stroke-linecap: square"/>
   </g>
   <g id="patch_3">
    <path d="M 108 320.4 
L 108 43.2 
" style="fill: none; stroke: #a9a9a9; stroke-width: 0.8; stroke-linejoin: miter; stroke-linecap: square"/>
   </g>
   <g id="patch_4">
    <path d="M 777.6 320.4 
L 777.6 43.2 
" style="fill: none"/>
   </g>
   <g id="patch_5">
    <path d="M 108 320.4 
L 777.6 320.4 
" style="fill: none; stroke: #a9a9a9; stroke-width: 0.8; stroke-linejoin: miter; stroke-linecap: square"/>
   </g>
   <g id="patch_6">
    <path d="M 108 43.2 
L 777.6 43.2 
" style="fill: none"/>
   </g>
   <g id="text_20">
    <!-- get_subscribe history -->
    <g style="fill: #a9a9a9" transform="translate(378.6075 37.2) scale(0.12 -0.12)">
     <defs>
      <path id="DejaVuSans-67" d="M 2906 1791 
Q 2906 2416 2648 2759 
Q 2391 3103 1925 3103 
Q 1463 3103 1205 2759 
Q 947 2416 947 1791 
Q 947 1169 1205 825 
Q 1463 481 1925 481 
Q 2391 481 2648 825 
Q 2906 1169 2906 1791 
z
M 3481 434 
Q 3481 -459 3084 -895 
Q 2688 -1331 1869 -1331 
Q 1566 -1331 1297 -1286 
Q 1028 -1241 775 -1147 
L 775 -588 
Q 1028 -725 1275 -790 
Q 1522 -856 1778 -856 
Q 2344 -856 2625 -561 
Q 2906 -266 2906 331 
L 2906 616 
Q 2728 306 2450 153 
Q 2172 0 1784 0 
Q 1141 0 747 490 
Q 353 981 353 1791 
Q 353 2603 747 3093 
Q 1141 3584 1784 3584 
Q 2172 3584 2450 3431 
Q 2728 3278 2906 2969 
L 2906 3500 
L 3481 3500 
L 3481 434 
z
" transform="scale(0.015625)"/>
      <path id="DejaVuSans-65" d="M 3597 1894 
L 3597 1613 
L 953 1613 
Q 991 1019 1311 708 
Q 1631 397 2203 397 
Q 2534 397 2845 478 
Q 3156 559 3463 722 
L 3463 178 
Q 3153 47 2828 -22 
Q 2503 -91 2169 -91 
Q 1331 -91 842 396 
Q 353 884 353 1716 
Q 353 2575 817 3079 
Q 1281 3584 2069 3584 
Q 2775 3584 3186 3129 
Q 3597 2675 3597 1894 
z
M 3022 2063 
Q 3016 2534 2758 2815 
Q 2500 3097 2075 3097 
Q 1594 3097 1305 2825 
Q 1016 2553 972 2059 
L 3022 2063 
z
" transform="scale(0.015625)"/>
      <path id="DejaVuSans-74" d="M 1172 4494 
L 1172 3500 
L 2356 3500 
L 2356 3053 
L 1172 3053 
L 1172 1153 
Q 1172 725 1289 603 
Q 1406 481 1766 481 
L 2356 481 
L 2356 0 
L 1766 0 
Q 1100 0 847 248 
Q 594 497 594 1153 
L 594 3053 
L 172 3053 
L 172 3500 
L 594 3500 
L 594 4494 
L 1172 4494 
z
" transform="scale(0.015625)"/>
      <path id="DejaVuSans-5f" d="M 3263 -1063 
L 3263 -1509 
L -63 -1509 
L -63 -1063 
L 3263 -1063 
z
" transform="scale(0.015625)"/>
      <path id="DejaVuSans-73" d="M 2834 3397 
L 2834 2853 
Q 2591 2978 2328 3040 
Q 2066 3103 1784 3103 
Q 1356 3103 1142 2972 
Q 928 2841 928 2578 
Q 928 2378 1081 2264 
Q 1234 2150 1697 2047 
L 1894 2003 
Q 2506 1872 2764 1633 
Q 3022 1394 3022 966 
Q 3022 478 2636 193 
Q 2250 -91 1575 -91 
Q 1294 -91 989 -36 
Q 684 19 347 128 
L 347 722 
Q 666 556 975 473 
Q 1284 391 1588 391 
Q 1994 391 2212 530 
Q 2431 669 2431 922 
Q 2431 1156 2273 1281 
Q 2116 1406 1581 1522 
L 1381 1569 
Q 847 1681 609 1914 
Q 372 2147 372 2553 
Q 372 3047 722 3315 
Q 1072 3584 1716 3584 
Q 2034 3584 2315 3537 
Q 2597 3491 2834 3397 
z
" transform="scale(0.015625)"/>
      <path id="DejaVuSans-75" d="M 544 1381 
L 544 3500 
L 1119 3500 
L 1119 1403 
Q 1119 906 1312 657 
Q 1506 409 1894 409 
Q 2359 409 2629 706 
Q 2900 1003 2900 1516 
L 2900 3500 
L 3475 3500 
L 3475 0 
L 2900 0 
L 2900 538 
Q 2691 219 2414 64 
Q 2138 -91 1772 -91 
Q 1169 -91 856 284 
Q 544 659 544 1381 
z
M 1991 3584 
L 1991 3584 
z
" transform="scale(0.015625)"/>
      <path id="DejaVuSans-62" d="M 3116 1747 
Q 3116 2381 2855 2742 
Q 2594 3103 2138 3103 
Q 1681 3103 1420 2742 
Q 1159 2381 1159 1747 
Q 1159 1113 1420 752 
Q 1681 391 2138 391 
Q 2594 391 2855 752 
Q 3116 1113 3116 1747 
z
M 1159 2969 
Q 1341 3281 1617 3432 
Q 1894 3584 2278 3584 
Q 2916 3584 3314 3078 
Q 3713 2572 3713 1747 
Q 3713 922 3314 415 
Q 2916 -91 2278 -91 
Q 1894 -91 1617 61 
Q 1341 213 1159 525 
L 1159 0 
L 581 0 
L 581 4863 
L 1159 4863 
L 1159 2969 
z
" transform="scale(0.015625)"/>
      <path id="DejaVuSans-63" d="M 3122 3366 
L 3122 2828 
Q 2878 2963 2633 3030 
Q 2388 3097 2138 3097 
Q 1578 3097 1268 2742 
Q 959 2388 959 1747 
Q 959 1106 1268 751 
Q 1578 397 2138 397 
Q 2388 397 2633 464 
Q 2878 531 3122 666 
L 3122 134 
Q 2881 22 2623 -34 
Q 2366 -91 2075 -91 
Q 1284 -91 818 406 
Q 353 903 353 1747 
Q 353 2603 823 3093 
Q 1294 3584 2113 3584 
Q 2378 3584 2631 3529 
Q 2884 3475 3122 3366 
z
" transform="scale(0.015625)"/>
      <path id="DejaVuSans-72" d="M 2631 2963 
Q 2534 3019 2420 3045 
Q 2306 3072 2169 3072 
Q 1681 3072 1420 2755 
Q 1159 2438 1159 1844 
L 1159 0 
L 581 0 
L 581 3500 
L 1159 3500 
L 1159 2956 
Q 1341 3275 1631 3429 
Q 1922 3584 2338 3584 
Q 2397 3584 2469 3576 
Q 2541 3569 2628 3553 
L 2631 2963 
z
" transform="scale(0.015625)"/>
      <path id="DejaVuSans-69" d="M 603 3500 
L 1178 3500 
L 1178 0 
L 603 0 
L 603 3500 
z
M 603 4863 
L 1178 4863 
L 1178 4134 
L 603 4134 
L 603 4863 
z
" transform="scale(0.015625)"/>
      <path id="DejaVuSans-20" transform="scale(0.015625)"/>
      <path id="DejaVuSans-68" d="M 3513 2113 
L 3513 0 
L 2938 0 
L 2938 2094 
Q 2938 2591 2744 2837 
Q 2550 3084 2163 3084 
Q 1697 3084 1428 2787 
Q 1159 2491 1159 1978 
L 1159 0 
L 581 0 
L 581 4863 
L 1159 4863 
L 1159 2956 
Q 1366 3272 1645 3428 
Q 1925 3584 2291 3584 
Q 2894 3584 3203 3211 
Q 3513 2838 3513 2113 
z
" transform="scale(0.015625)"/>
      <path id="DejaVuSans-6f" d="M 1959 3097 
Q 1497 3097 1228 2736 
Q 959 2375 959 1747 
Q 959 1119 1226 758 
Q 1494 397 1959 397 
Q 2419 397 2687 759 
Q 2956 1122 2956 1747 
Q 2956 2369 2687 2733 
Q 2419 3097 1959 3097 
z
M 1959 3584 
Q 2709 3584 3137 3096 
Q 3566 2609 3566 1747 
Q 3566 888 3137 398 
Q 2709 -91 1959 -91 
Q 1206 -91 779 398 
Q 353 888 353 1747 
Q 353 2609 779 3096 
Q 1206 3584 1959 3584 
z
" transform="scale(0.015625)"/>
      <path id="DejaVuSans-79" d="M 2059 -325 
Q 1816 -950 1584 -1140 
Q 1353 -1331 966 -1331 
L 506 -1331 
L 506 -850 
L 844 -850 
Q 1081 -850 1212 -737 
Q 1344 -625 1503 -206 
L 1606 56 
L 191 3500 
L 800 3500 
L 1894 763 
L 2988 3500 
L 3597 3500 
L 2059 -325 
z
" transform="scale(0.015625)"/>
     </defs>
     <use xlink:href="#DejaVuSans-67"/>
     <use xlink:href="#DejaVuSans-65" x="63.476562"/>
     <use xlink:href="#DejaVuSans-74" x="125"/>
     <use xlink:href="#DejaVuSans-5f" x="164.208984"/>
     <use xlink:href="#DejaVuSans-73" x="214.208984"/>
     <use xlink:href="#DejaVuSans-75" x="266.308594"/>
     <use xlink:href="#DejaVuSans-62" x="329.6875"/>
     <use xlink:href="#DejaVuSans-73" x="393.164062"/>
     <use xlink:href="#DejaVuSans-63" x="445.263672"/>
     <use xlink:href="#DejaVuSans-72" x="500.244141"/>
     <use xlink:href="#DejaVuSans-69" x="541.357422"/>
     <use xlink:href="#DejaVuSans-62" x="569.140625"/>
     <use xlink:href="#DejaVuSans-65" x="632.617188"/>
     <use xlink:href="#DejaVuSans-20" x="694.140625"/>
     <use xlink:href="#DejaVuSans-68" x="725.927734"/>
     <use xlink:href="#DejaVuSans-69" x="789.306641"/>
     <use xlink:href="#DejaVuSans-73" x="817.089844"/>
     <use xlink:href="#DejaVuSans-74" x="869.189453"/>
     <use xlink:href="#DejaVuSans-6f" x="908.398438"/>
     <use xlink:href="#DejaVuSans-72" x="969.580078"/>
     <use xlink:href="#DejaVuSans-79" x="1010.693359"/>
    </g>
   </g>
   <g id="legend_1">
    <g id="line2d_41">
     <path d="M 815.08 328.498438 
L 825.08 328.498438 
L 835.08 328.498438 
" style="fill: none; stroke: #1f77b4; stroke-width: 1.5; stroke-linecap: square"/>
    </g>
    <g id="text_21">
     <!-- star -->
     <g style="fill: #a9a9a9" transform="translate(843.08 331.998438) scale(0.1 -0.1)">
      <defs>
       <path id="DejaVuSans-61" d="M 2194 1759 
Q 1497 1759 1228 1600 
Q 959 1441 959 1056 
Q 959 750 1161 570 
Q 1363 391 1709 391 
Q 2188 391 2477 730 
Q 2766 1069 2766 1631 
L 2766 1759 
L 2194 1759 
z
M 3341 1997 
L 3341 0 
L 2766 0 
L 2766 531 
Q 2569 213 2275 61 
Q 1981 -91 1556 -91 
Q 1019 -91 701 211 
Q 384 513 384 1019 
Q 384 1609 779 1909 
Q 1175 2209 1959 2209 
L 2766 2209 
L 2766 2266 
Q 2766 2663 2505 2880 
Q 2244 3097 1772 3097 
Q 1472 3097 1187 3025 
Q 903 2953 641 2809 
L 641 3341 
Q 956 3463 1253 3523 
Q 1550 3584 1831 3584 
Q 2591 3584 2966 3190 
Q 3341 2797 3341 1997 
z
" transform="scale(0.015625)"/>
      </defs>
      <use xlink:href="#DejaVuSans-73"/>
      <use xlink:href="#DejaVuSans-74" x="52.099609"/>
      <use xlink:href="#DejaVuSans-61" x="91.308594"/>
      <use xlink:href="#DejaVuSans-72" x="152.587891"/>
     </g>
    </g>
    <g id="line2d_42">
     <path d="M 815.08 343.176562 
L 825.08 343.176562 
L 835.08 343.176562 
" style="fill: none; stroke: #ff7f0e; stroke-width: 1.5; stroke-linecap: square"/>
    </g>
    <g id="text_22">
     <!-- fork -->
     <g style="fill: #a9a9a9" transform="translate(843.08 346.676562) scale(0.1 -0.1)">
      <defs>
       <path id="DejaVuSans-66" d="M 2375 4863 
L 2375 4384 
L 1825 4384 
Q 1516 4384 1395 4259 
Q 1275 4134 1275 3809 
L 1275 3500 
L 2222 3500 
L 2222 3053 
L 1275 3053 
L 1275 0 
L 697 0 
L 697 3053 
L 147 3053 
L 147 3500 
L 697 3500 
L 697 3744 
Q 697 4328 969 4595 
Q 1241 4863 1831 4863 
L 2375 4863 
z
" transform="scale(0.015625)"/>
       <path id="DejaVuSans-6b" d="M 581 4863 
L 1159 4863 
L 1159 1991 
L 2875 3500 
L 3609 3500 
L 1753 1863 
L 3688 0 
L 2938 0 
L 1159 1709 
L 1159 0 
L 581 0 
L 581 4863 
z
" transform="scale(0.015625)"/>
      </defs>
      <use xlink:href="#DejaVuSans-66"/>
      <use xlink:href="#DejaVuSans-6f" x="35.205078"/>
      <use xlink:href="#DejaVuSans-72" x="96.386719"/>
      <use xlink:href="#DejaVuSans-6b" x="137.5"/>
     </g>
    </g>
   </g>
  </g>
 </g>
 <defs>
  <clipPath id="pa7bbcf5cde">
   <rect x="108" y="43.2" width="669.6" height="277.2"/>
  </clipPath>
 </defs>
</svg>
